<?xml version="1.0" encoding="utf-8"?>
<!-- Uploaded to: SVG Repo, www.svgrepo.com, Generator: SVG Repo Mixer Tools -->
<svg fill="#000000" width="800px" height="800px" viewBox="0 0 32 32" version="1.1" xmlns="http://www.w3.org/2000/svg">
<title>barbed-arrow</title>
<path d="M15.495 24.305c4.073 3.759 9.46 6.191 15.386 6.469-0.269-5.94-2.712-11.314-6.469-15.386 0.493 1.96 0.738 4.095 0.68 6.373-0.349-0.351-0.699-0.702-1.053-1.056-0.975-0.975-1.959-1.941-2.949-2.896l1.663-3.337-3.389 1.688c-1.164-1.099-2.333-2.18-3.501-3.237l1.579-3.17-3.29 1.639c-1.166-1.032-2.329-2.037-3.483-3.010l1.338-2.686-2.854 1.422c-1.064-0.877-2.118-1.723-3.158-2.535l1.14-2.289-2.496 1.243c-1.111-0.845-2.202-1.648-3.267-2.401 0.75 1.059 1.548 2.142 2.388 3.244l-1.279 2.567 2.355-1.173c0.802 1.024 1.637 2.061 2.502 3.109l-1.47 2.952 2.78-1.385c0.947 1.119 1.925 2.247 2.928 3.378l-1.777 3.566 3.44-1.714c1.036 1.14 2.095 2.281 3.172 3.418l-1.702 3.417 3.367-1.678c1.347 1.392 2.717 2.774 4.101 4.136-2.394 0.090-4.638-0.149-6.682-0.668z"></path>
</svg>