<?xml version="1.0" encoding="utf-8"?>
<!-- Uploaded to: SVG Repo, www.svgrepo.com, Generator: SVG Repo Mixer Tools -->
<svg fill="#000000" width="800px" height="800px" viewBox="0 0 32 32" version="1.1" xmlns="http://www.w3.org/2000/svg">
<title>beetle</title>
<path d="M29.129 20.755l1.336-0.086c-0.693-0.546-1.356-1.004-1.927-2.266-0.346-1.591-0.889-3.088-3.351-3.588 0.111 0.16 0.215 0.322 0.312 0.484-0.535-0.195-1.089-0.195-1.661-0.030 0-0.027 0.001-0.054 0.001-0.081 0-1.184-0.141-2.323-0.399-3.388 0.954 0.165 1.782-0.001 2.447-0.595-0.026 0.197-0.058 0.398-0.097 0.603 1.764-1.258 2.046-2.377 1.985-3.481 0.225-1.366 0.746-1.98 1.275-2.687l-1.517 0.303c0.017-0.699 0.209-1.425 0.837-2.206-4.446 0.336-2.221 2.461-2.403 6.556l-2.746 0.707c-0.759-2.451-2.166-4.437-3.927-5.563 0.104-0.073 0.201-0.149 0.293-0.228 0.407 0.426 0.981 0.692 1.617 0.692 1.236 0 2.238-1.002 2.238-2.238s-1.002-2.238-2.238-2.238c-0.554 0-1.061 0.202-1.452 0.535-0.803-0.795-2.204-1.321-3.8-1.321s-2.997 0.527-3.8 1.321c-0.391-0.333-0.897-0.535-1.451-0.535-1.236 0-2.238 1.002-2.238 2.238s1.002 2.238 2.238 2.238c0.636 0 1.209-0.265 1.617-0.691 0.092 0.079 0.189 0.155 0.293 0.228-1.764 1.127-3.171 3.118-3.93 5.574l-2.791-0.718c-0.182-4.095 2.043-6.22-2.403-6.556 0.624 0.776 0.817 1.498 0.836 2.194l-1.455-0.291c0.497 0.665 0.988 1.247 1.232 2.451-0.112 1.181 0.077 2.369 1.967 3.716-0.039-0.205-0.071-0.406-0.097-0.603 0.676 0.604 1.522 0.765 2.497 0.585-0.26 1.068-0.402 2.21-0.402 3.397 0 0.032 0.001 0.063 0.001 0.095-0.588-0.179-1.159-0.184-1.709 0.016 0.098-0.162 0.201-0.324 0.312-0.484-2.558 0.52-3.045 2.115-3.391 3.774-0.55 1.122-1.181 1.561-1.839 2.079l1.289 0.083c-0.293 0.734-0.755 1.378-1.606 1.816 4.157 1.487 2.98-2.414 4.721-6.283l2.264 0.023c0.115 1.52 0.462 2.947 0.992 4.212-1.080 0.299-1.844 0.855-2.184 1.756-1.408 1.453-0.767 2.403 0.476 3.579 0.411 1.192 0.275 1.952 0.176 2.787l1.238-1.087c0.219 0.91 0.109 1.564 0.024 2.272l1.357-1.192c0.436 0.546 0.839 1.159 1.169 1.858 1.426-4.255-2.964-4.797-3.807-7.556l1.833-1.797c1.413 2.9 3.829 4.811 6.572 4.811 2.734 0 5.142-1.898 6.557-4.78l1.801 1.765c-0.843 2.759-5.233 3.301-3.807 7.556 0.324-0.688 0.72-1.291 1.147-1.831l1.326 1.165c-0.085-0.709-0.195-1.363 0.024-2.272l1.238 1.087c-0.098-0.818-0.23-1.564 0.151-2.715 1.293-1.209 1.989-2.168 0.553-3.651-0.336-0.889-1.083-1.443-2.141-1.745 0.533-1.268 0.881-2.699 0.997-4.224l2.216-0.022c1.741 3.87 0.564 7.77 4.721 6.283-0.85-0.437-1.312-1.080-1.605-1.813zM11.022 19.132l-0.643-9.454 1.438-0.496-0.795 9.95zM13.536 22.544l-0.634-13.931 1.418-0.73-0.784 14.662zM18.589 22.544l-0.784-14.662 1.418 0.73-0.634 13.931zM20.308 9.182l1.438 0.496-0.643 9.454-0.795-9.95z"></path>
</svg>